<svg class="lds-gear" width="200px"  height="200px"  xmlns="http://www.w3.org/2000/svg" xmlns:xlink="http://www.w3.org/1999/xlink" viewBox="0 0 100 100" preserveAspectRatio="xMidYMid" style="background-image: none; background-position: initial initial; background-repeat: initial initial;"><g transform="translate(50 50)">
<g>
<animateTransform attributeName="transform" type="rotate" values="0;360" keyTimes="0;1" dur="3.2s" repeatCount="indefinite"></animateTransform><path d="M37.43995192304605 -6.5 L47.43995192304605 -6.5 L47.43995192304605 6.5 L37.43995192304605 6.5 A38 38 0 0 1 34.11016151422633 16.74804112346853 L34.11016151422633 16.74804112346853 L42.20033145797581 22.62589364639326 L34.55912317817366 33.14311457326757 L26.46895323442418 27.26526205034284 A38 38 0 0 1 17.751448768720724 33.59889978275306 L17.751448768720724 33.59889978275306 L20.8416187124702 43.109464945704595 L8.477884000633205 47.12668587257891 L5.38771405688373 37.616120709627374 A38 38 0 0 1 -5.387714056883725 37.616120709627374 L-5.387714056883725 37.616120709627374 L-8.4778840006332 47.12668587257891 L-20.84161871247019 43.1094649457046 L-17.751448768720717 33.598899782753065 A38 38 0 0 1 -26.468953234424173 27.26526205034285 L-26.468953234424173 27.26526205034285 L-34.55912317817365 33.14311457326758 L-42.2003314579758 22.62589364639327 L-34.11016151422633 16.748041123468536 A38 38 0 0 1 -37.43995192304605 6.500000000000003 L-37.43995192304605 6.500000000000003 L-47.43995192304605 6.5000000000000036 L-47.43995192304606 -6.499999999999993 L-37.43995192304606 -6.499999999999994 A38 38 0 0 1 -34.11016151422633 -16.74804112346853 L-34.11016151422633 -16.74804112346853 L-42.20033145797581 -22.62589364639326 L-34.55912317817366 -33.14311457326757 L-26.46895323442418 -27.26526205034284 A38 38 0 0 1 -17.751448768720728 -33.59889978275306 L-17.751448768720728 -33.59889978275306 L-20.841618712470204 -43.109464945704595 L-8.47788400063321 -47.12668587257891 L-5.387714056883735 -37.616120709627374 A38 38 0 0 1 5.387714056883721 -37.616120709627374 L5.387714056883721 -37.616120709627374 L8.477884000633193 -47.12668587257891 L20.84161871247019 -43.1094649457046 L17.751448768720717 -33.598899782753065 A38 38 0 0 1 26.468953234424173 -27.265262050342855 L26.468953234424173 -27.265262050342855 L34.55912317817365 -33.14311457326759 L42.20033145797579 -22.625893646393273 L34.11016151422632 -16.74804112346854 A38 38 0 0 1 37.43995192304605 -6.500000000000007 M0 -20A20 20 0 1 0 0 20 A20 20 0 1 0 0 -20" fill="#EEEEEE"></path></g></g></svg>